# xmcd CD database file
#
# Track frame offsets:
#	150
#	14234
#	24912
#	43991
#	55517
#	81047
#	90624
#	103522
#	118210
#	127716
#	145642
#	156751
#	169678
#	182325
#
# Disc length: 2623 seconds
#
# Revision: 0
# Processed by: cddbd v1.5.2PL0 Copyright (c) Steve Scherf et al.
# Submitted via: CDex 1.51
#
DISCID=a70a3d0e
DTITLE=Van Merwyk,Michael - Fight The Darkness
DYEAR=2017
DGENRE=Blues
TTITLE0=The Well
TTITLE1=Tell It Like It Is
TTITLE2=Fuck You, Mr Trouble
TTITLE3=Heavy Load
TTITLE4=Fight The Darkness
TTITLE5=Just One Lie
TTITLE6=Coffee
TTITLE7=Motormouth Baby
TTITLE8=Diddley Boogie
TTITLE9=Count Your Blessings
TTITLE10=The Way You Cook
TTITLE11=So Endless The Night
TTITLE12=Every Once In A While
TTITLE13=If I Die Tomorrow
EXTD=YEAR: 2017
EXTT0=
EXTT1=
EXTT2=
EXTT3=
EXTT4=
EXTT5=
EXTT6=
EXTT7=
EXTT8=
EXTT9=
EXTT10=
EXTT11=
EXTT12=
EXTT13=
PLAYORDER=
